<svg xmlns:osb="http://www.openswatchbook.org/uri/2009/osb" xmlns="http://www.w3.org/2000/svg" xmlns:xlink="http://www.w3.org/1999/xlink" viewBox="0 0 264.583 264.583" height="1000" width="1000"><defs><linearGradient osb:paint="solid" id="c"><stop offset="0" stop-color="#578968"/></linearGradient><linearGradient osb:paint="solid" id="b"><stop offset="0" stop-color="#162a30"/></linearGradient><linearGradient id="l"><stop offset="0" stop-color="#fff"/><stop offset=".914" stop-color="#fff"/><stop offset="1"/></linearGradient><linearGradient id="i"><stop offset="0" stop-opacity="0"/><stop offset="1" stop-color="#6e00ff" stop-opacity=".165"/></linearGradient><linearGradient id="j"><stop offset="0" stop-color="#fff" stop-opacity="0"/><stop offset="1" stop-color="#ffcfff" stop-opacity=".306"/></linearGradient><linearGradient osb:paint="solid" id="h"><stop offset="0" stop-color="#ffd687"/></linearGradient><linearGradient osb:paint="solid" id="g"><stop offset="0" stop-color="#f6c25b"/></linearGradient><linearGradient osb:paint="solid" id="e"><stop offset="0" stop-color="#b2780b"/></linearGradient><linearGradient osb:paint="solid" id="f"><stop offset="0" stop-color="#bd8416"/></linearGradient><linearGradient osb:paint="solid" id="d"><stop offset="0" stop-color="#e1a634"/></linearGradient><linearGradient xlink:href="#b" id="w" x1="-22.529" y1="119.934" x2="135.335" y2="119.934" gradientUnits="userSpaceOnUse"/><linearGradient xlink:href="#b" id="y" gradientUnits="userSpaceOnUse" x1="49.358" y1="85.092" x2="329.244" y2="85.092"/><linearGradient xlink:href="#c" id="v" x1="-37.032" y1="115.909" x2="119.936" y2="115.909" gradientUnits="userSpaceOnUse"/><linearGradient xlink:href="#c" id="x" x1="58.105" y1="79.929" x2="315.214" y2="79.929" gradientUnits="userSpaceOnUse"/><linearGradient gradientUnits="userSpaceOnUse" y2="132.292" x2="264.583" y1="132.292" x1="0" id="q" xlink:href="#d"/><linearGradient gradientUnits="userSpaceOnUse" y2="102.919" x2="239.905" y1="102.919" x1="-142.898" id="s" xlink:href="#e" gradientTransform="translate(-7.558 -2.8)"/><linearGradient gradientTransform="translate(17.23 5.495)" gradientUnits="userSpaceOnUse" y2="65.613" x2="312.964" y1="65.613" x1="84.667" id="r" xlink:href="#f"/><linearGradient gradientUnits="userSpaceOnUse" y2="146.29" x2="204.99" y1="146.29" x1="20.627" id="t" xlink:href="#g"/><linearGradient gradientUnits="userSpaceOnUse" y2="125.51" x2="185.044" y1="125.51" x1="92.441" id="u" xlink:href="#h"/><radialGradient gradientTransform="matrix(.7695 1.21074 -2.13561 1.35733 264.862 -154.319)" gradientUnits="userSpaceOnUse" r="132.292" fy="104.756" fx="88.994" cy="104.756" cx="88.994" id="A" xlink:href="#i"/><radialGradient gradientTransform="matrix(1.85254 -1.13817 1.10773 1.803 -423.685 43.479)" gradientUnits="userSpaceOnUse" r="132.292" fy="228.829" fx="199.644" cy="228.829" cx="199.644" id="z" xlink:href="#j"/><radialGradient r="131.793" fy="132.292" fx="132.292" cy="132.292" cx="132.292" gradientTransform="matrix(1.00565 .00317 -.00315 1.00002 -.33 -.422)" gradientUnits="userSpaceOnUse" id="k" xlink:href="#l"/><pattern patternTransform="matrix(-3.64695 32.96115 -23.4898 -2.599 0 0)" id="m" xlink:href="#a"/><pattern patternUnits="userSpaceOnUse" width="2" height="1" patternTransform="scale(10)" id="a"><path fill="#2f5096" d="M0-.5h1v2H0z"/></pattern><clipPath id="p" clipPathUnits="userSpaceOnUse"><path d="M247.89 75.078l-19.562 143.238a7.283 7.283 133.778 01-5.924 6.182L80.057 250.166a7.286 7.286 25.77 01-7.711-3.723L3.936 119.067a7.28 7.28 97.774 011.158-8.481L105.16 6.195a7.287 7.287 169.775 018.427-1.52l130.255 62.86a7.281 7.281 61.77 014.05 7.543z" fill="none" fill-rule="evenodd" stroke="#000" stroke-width=".312"/></clipPath><filter height="1.183" y="-.091" width="1.184" x="-.092" id="o" color-interpolation-filters="sRGB"><feFlood result="flood" flood-color="#000" flood-opacity=".503"/><feComposite result="composite1" operator="in" in2="SourceGraphic" in="flood"/><feGaussianBlur result="blur" stdDeviation="9.382" in="composite1"/><feOffset result="offset" dy="3"/><feComposite result="composite2" in2="offset" in="SourceGraphic"/></filter><mask id="n" maskUnits="userSpaceOnUse"><path fill="url(#k)" fill-rule="evenodd" stroke-width=".996" stroke-opacity=".165" d="M.498.498h263.587v263.587H.498z"/></mask></defs><path mask="url(#n)" style="mix-blend-mode:normal" d="M247.89 75.078l-19.562 143.238a7.283 7.283 133.778 01-5.924 6.182L80.057 250.166a7.286 7.286 25.77 01-7.711-3.723L3.936 119.067a7.28 7.28 97.774 011.158-8.481L105.16 6.195a7.287 7.287 169.775 018.427-1.52l130.255 62.86a7.281 7.281 61.77 014.05 7.543z" fill-rule="evenodd" filter="url(#o)"/><g clip-path="url(#p)"><path fill="url(#q)" fill-rule="evenodd" d="M0 0h264.583v264.583H0z"/><circle cx="216.045" cy="71.108" transform="rotate(2.867)" fill="none" stroke="url(#r)" stroke-width="13.994" r="107.152"/><ellipse ry="179.669" rx="179.668" transform="rotate(2.867)" cy="100.118" cx="40.946" fill="none" stroke="url(#s)" stroke-width="23.465"/><circle cx="112.809" cy="146.29" transform="rotate(2.867)" fill="none" stroke="url(#t)" stroke-width="15.875" r="84.244"/><circle transform="rotate(2.867)" cy="125.51" cx="138.743" fill="none" stroke="url(#u)" stroke-width="8.359" r="42.122"/><path d="M-36.89-5.443l31.447-3.326 125.18 198.637-138.339 50.675z" fill="url(#v)" transform="rotate(.79 -898.32 240.742)"/><path style="mix-blend-mode:normal" d="M-3.404-12.36l138.739 207.965L-21.2 252.229l-2.538-22.123 131.105-44.583L-10.544-11z" fill="url(#w)" transform="rotate(.79 -898.32 240.742)"/><path d="M58.479-16.357l256.044 199.062.558-205.686z" fill="url(#x)" transform="rotate(-2.867 188.963 94.446)"/><path d="M60.099-19.452l269.145 201.626-21.96 7.66L49.357-19.65z" fill="url(#y)" transform="rotate(-2.867 188.963 94.446)"/><path opacity=".463" fill="url(#z)" fill-rule="evenodd" d="M0 0h264.583v264.583H0z"/><path fill="url(#A)" fill-rule="evenodd" d="M0 0h264.583v264.583H0z"/></g></svg>